<svg height="512pt" viewBox="-69 0 512 512.0005" width="512pt" xmlns="http://www.w3.org/2000/svg"><path d="m187.550781 512c28.390625 0 64.515625-33.515625 74.234375-89.484375 8.453125-48.691406 10.351563-79.445313-74.234375-79.445313-84.585937 0-82.683593 30.753907-74.230469 79.445313 9.714844 55.96875 45.839844 89.484375 74.230469 89.484375zm0 0" fill="#f8e47c"/><path d="m121.613281 313.039062c-71.230469 0-134.269531 57.742188-119.425781 137.6875 2.746094 14.789063 22.597656 17.472657 29.296875 4.003907 14.023437-28.191407 40.289063-55.152344 95.785156-55.152344zm0 0" fill="#7397da"/><path d="m253.488281 313.039062c71.230469 0 134.269531 57.742188 119.429688 137.6875-2.746094 14.789063-22.597657 17.472657-29.300781 4.003907-14.023438-28.191407-40.289063-55.152344-95.785157-55.152344zm0 0" fill="#7397da"/><path d="m253.488281 313.039062-5.65625 86.542969c26.878907 0 46.882813 6.332031 61.976563 16.058594 5.789062-6.066406 9.765625-13.925781 10.953125-22.730469 2.621093-19.449218 4.511719-38.601562 5.679687-57.417968-20.726562-14.34375-46.261718-22.453126-72.953125-22.453126zm0 0" fill="#6988c4"/><path d="m121.613281 313.039062c-26.6875 0-52.226562 8.109376-72.949219 22.453126 1.167969 18.816406 3.054688 37.96875 5.679688 57.417968 1.1875 8.804688 5.160156 16.664063 10.949219 22.730469 15.09375-9.726563 35.101562-16.058594 61.976562-16.058594zm0 0" fill="#6988c4"/><path d="m300.460938 390.175781c19.613281-145.421875-2.375-281.714843-72.023438-370.046875-20.84375-26.433594-60.929688-26.433594-81.769531 0-69.648438 88.332032-91.636719 224.625-72.027344 370.046875 1.363281 10.113281 9.957031 17.691407 20.164063 17.691407h185.496093c10.207031 0 18.796875-7.578126 20.160157-17.691407zm0 0" fill="#eeeeed"/><path d="m160.21875 8.019531c-5.027344 3.101563-9.632812 7.136719-13.550781 12.109375-69.648438 88.332032-91.636719 224.625-72.027344 370.046875 1.363281 10.117188 9.957031 17.691407 20.164063 17.691407h132.671874c-79.539062-113.273438-113.511718-266.894532-67.257812-399.847657zm0 0" fill="#dfdfdd"/><path d="m240.96875 179.769531c0 29.5-23.914062 53.417969-53.417969 53.417969-29.5 0-53.417969-23.917969-53.417969-53.417969 0-29.503906 23.917969-53.417969 53.417969-53.417969 29.503907 0 53.417969 23.914063 53.417969 53.417969zm0 0" fill="#fff"/><path d="m187.550781 126.351562c-28.226562 0-51.328125 21.898438-53.269531 49.632813 6.3125-16.746094 22.480469-28.664063 41.441406-28.664063 24.453125 0 44.277344 19.824219 44.277344 44.277344 0 18.960938-11.917969 35.128906-28.664062 41.441406 27.734374-1.941406 49.632812-25.039062 49.632812-53.269531 0-29.503906-23.914062-53.417969-53.417969-53.417969zm0 0" fill="#eeeeed"/><path d="m187.550781 246.5c-36.796875 0-66.730469-29.933594-66.730469-66.730469s29.933594-66.730469 66.730469-66.730469 66.730469 29.933594 66.730469 66.730469-29.933594 66.730469-66.730469 66.730469zm0-106.835938c-22.113281 0-40.101562 17.992188-40.101562 40.105469s17.988281 40.105469 40.101562 40.105469 40.105469-17.992188 40.105469-40.105469-17.992188-40.105469-40.105469-40.105469zm0 0" fill="#495059"/><path d="m139.3125 133.730469c-11.441406 11.984375-18.492188 28.199219-18.492188 46.039062 0 23.230469 11.9375 43.714844 29.996094 55.671875-7.636718-33.4375-11.632812-67.636718-11.503906-101.710937zm0 0" fill="#41464f"/><path d="m266.382812 82.554688c-10.671874-22.976563-23.457031-44.144532-38.464843-63.078126-20.585938-25.96875-60.148438-25.96875-80.734375 0-15.007813 18.933594-27.792969 40.101563-38.464844 63.078126 18.601562 4.523437 40.476562 7.933593 78.832031 7.933593s60.234375-3.410156 78.832031-7.933593zm0 0" fill="#eb8d9a"/><path d="m70.160156 348.695312c1.109375 13.71875 2.601563 27.558594 4.480469 41.480469 1.363281 10.117188 9.957031 17.691407 20.164063 17.691407h185.496093c10.207031 0 18.796875-7.574219 20.160157-17.691407 1.878906-13.921875 3.371093-27.761719 4.480468-41.480469zm0 0" fill="#80bbe6"/><path d="m191.9375 348.695312h-121.777344c1.109375 13.71875 2.601563 27.554688 4.480469 41.480469 1.363281 10.113281 9.957031 17.691407 20.164063 17.691407h132.671874c-13.140624-18.714844-25.042968-38.53125-35.539062-59.171876zm0 0" fill="#76acd4"/><path d="m116.972656 348.695312h15v59.171876h-15zm0 0" fill="#80bbe6"/><path d="m243.132812 348.695312h15v59.171876h-15zm0 0" fill="#76acd4"/><path d="m190.738281 322.6875h-6.375c-8.105469 0-14.679687 6.574219-14.679687 14.679688v111.425781c0 8.109375 6.574218 14.679687 14.679687 14.679687h6.375c8.105469 0 14.679688-6.570312 14.679688-14.679687v-111.425781c0-8.105469-6.574219-14.679688-14.679688-14.679688zm0 0" fill="#7397da"/><path d="m145.75 301.835938c0-10.75-10.945312-19.464844-24.445312-19.464844-13.496094 0-24.441407 8.714844-24.441407 19.464844s10.945313 19.464843 24.441407 19.464843c13.5 0 24.445312-8.714843 24.445312-19.464843zm0 0" fill="#eb8d9a"/><path d="m278.238281 301.835938c0-10.75-10.941406-19.464844-24.441406-19.464844s-24.445313 8.714844-24.445313 19.464844 10.945313 19.464843 24.445313 19.464843 24.441406-8.714843 24.441406-19.464843zm0 0" fill="#eb8d9a"/><g fill="#495059"><path d="m135.550781 289.917969c-4.140625 0-7.5-3.359375-7.5-7.5v-8.632813c0-4.144531 3.359375-7.5 7.5-7.5 4.144531 0 7.5 3.355469 7.5 7.5v8.632813c0 4.140625-3.355469 7.5-7.5 7.5zm0 0"/><path d="m239.550781 289.917969c-4.140625 0-7.5-3.359375-7.5-7.5v-8.632813c0-4.144531 3.359375-7.5 7.5-7.5s7.5 3.355469 7.5 7.5v8.632813c0 4.140625-3.355469 7.5-7.5 7.5zm0 0"/><path d="m187.550781 296.546875c-7.421875 0-14.480469-3.214844-19.363281-8.820313-2.722656-3.121093-2.394531-7.859374.726562-10.582031 3.125-2.722656 7.859376-2.394531 10.582032.726563 2.035156 2.335937 4.96875 3.675781 8.054687 3.675781 3.085938 0 6.019531-1.339844 8.054688-3.675781 2.722656-3.121094 7.460937-3.445313 10.582031-.726563 3.125 2.722657 3.449219 7.460938.726562 10.582031-4.882812 5.605469-11.941406 8.820313-19.363281 8.820313zm0 0"/></g><path d="m160.3125 7.742188c-4.863281 3.023437-9.320312 6.933593-13.128906 11.734374-15.007813 18.933594-27.792969 40.101563-38.464844 63.078126 9.605469 2.335937 20.09375 4.371093 33.269531 5.796874 3.164063-27.363281 9.179688-54.390624 18.324219-80.609374zm0 0" fill="#d67c88"/><path d="m179.894531 323.386719c-5.921875 1.890625-10.210937 7.433593-10.210937 13.980469v111.429687c0 8.105469 6.574218 14.675781 14.679687 14.675781h6.375c5.335938 0 9.996094-2.855468 12.5625-7.113281-21.546875-33.1875-23.375-105.429687-23.40625-132.972656zm0 0" fill="#6988c4"/></svg>