<svg id="Capa_1" enable-background="new 0 0 497.395 497.395" height="512" viewBox="0 0 497.395 497.395" width="512" xmlns="http://www.w3.org/2000/svg"><g><path d="m174.233 143.232-85.604 49.715c-108.646 63.096-108.24 220.146.731 282.679 96.064 55.127 217.969.592 240.897-107.767l1.725-8.154 66.75-115.015c4.772-8.223 3.414-18.628-3.308-25.351-7.829-7.829-20.397-8.221-28.699-.895l-31.801 28.062c-6.872 6.064-17.242 5.861-23.872-.467l-.319-.305c-7.361-7.026-7.614-18.595-.616-25.869 34.448-35.804 129.925-135.044 170.917-177.652 10.181-10.583 8.88-27.67-2.785-36.59l-.48-.367c-9.797-7.492-23.402-6.905-32.422 1.313-32.135 29.278-104.891 95.522-129.99 118.374-5.064 4.61-12.674 5.002-18.187.939-6.7-4.944-7.81-14.53-2.417-20.874l9.868-11.609c9.776-11.501 6.071-29.135-7.506-35.73-8.205-3.985-17.988-2.767-24.965 3.108z" fill="#fee97d"/><path d="m145.384 419.602c-83.4-47.86-103.204-151.113-59.202-225.207-106.164 64.026-104.961 219.175 3.177 281.231 79.834 45.814 177.527 15.869 221.414-57.743-48.303 28.965-110.996 32.932-165.389 1.719z" fill="#fee45a"/><path d="m182.253 266.017c-6.208-12.711-20.819-18.919-34.278-14.565l-39.461 12.767c-9.971 3.226-17.357 11.678-19.216 21.992l-4.204 23.313c-.857 4.754-2.913 9.211-5.972 12.95l-5.173 6.322c-6.807 8.32-8.336 19.769-3.951 29.584l5.467 12.235c2.387 5.342 3.066 11.29 1.946 17.033l-1.02 5.226c-2.113 10.83 2.235 21.905 11.152 28.404l23.667 17.249c4.861 3.543 10.72 5.451 16.735 5.451h23.163c2.166 0 4.326.248 6.436.739l13.725 3.192c10.139 2.358 20.757-1.018 27.673-8.798l1.465-1.649c3.859-4.342 8.957-7.396 14.606-8.752l15.655-3.757c9.052-2.172 16.465-8.641 19.844-17.314l11.461-29.417c3.927-10.079 1.79-21.514-5.511-29.495l-14.94-16.33c-4.208-4.599-6.786-10.455-7.338-16.664l-.545-6.128c-1.031-11.594-9.028-21.386-20.181-24.713l-13.795-4.114c-7.611-2.271-13.925-7.624-17.41-14.761z" fill="#ee6161"/><path d="m198.943 439.109.081-.091c-18.231-3.142-36.354-9.497-53.64-19.417-36.775-21.104-61.178-52.975-73.205-88.364-5.258 8.031-6.153 18.253-2.182 27.142l5.467 12.235c2.387 5.342 3.066 11.29 1.946 17.033l-1.02 5.226c-2.113 10.83 2.235 21.905 11.153 28.404l23.667 17.249c4.861 3.543 10.72 5.451 16.735 5.451h23.163c2.167 0 4.326.248 6.436.739l13.725 3.192c10.14 2.358 20.758-1.018 27.674-8.799z" fill="#e94444"/><path d="m461.704 113.174-32.475 35.605c-5.547 6.081-5.332 15.449.489 21.27 6.015 6.015 15.766 6.015 21.781 0l33.997-33.997c5.9-5.9 6.029-15.426.29-21.483l-1.523-1.607c-6.153-6.497-16.529-6.399-22.559.212z" fill="#fee45a"/><path d="m156.496 49.326-23.43 21.478c-7.477 6.854-7.731 18.559-.559 25.731 6.525 6.525 16.951 6.988 24.029 1.068l24.502-20.496c8.263-6.912 8.549-19.519.608-26.798l-1.071-.982c-6.813-6.245-17.268-6.245-24.079-.001z" fill="#fee45a"/><g><path d="m180.47 220.711c-2.054 0-4.099-.838-5.58-2.486-2.769-3.081-2.517-7.822.564-10.591l46.481-41.781c3.08-2.771 7.822-2.517 10.591.564s2.517 7.822-.564 10.591l-46.481 41.781c-1.432 1.287-3.225 1.922-5.011 1.922z" fill="#fee45a"/></g><g><path d="m258.808 210.787c-1.942 0-3.882-.75-5.351-2.244-2.902-2.955-2.86-7.704.095-10.606l29.247-28.728c2.957-2.902 7.704-2.859 10.606.095 2.902 2.955 2.86 7.704-.095 10.606l-29.247 28.728c-1.46 1.434-3.359 2.149-5.255 2.149z" fill="#fee45a"/></g><g><path d="m365.867 382.612c-1.714 0-3.437-.584-4.846-1.779-3.16-2.679-3.549-7.412-.871-10.571l59.336-69.983c2.678-3.16 7.411-3.551 10.571-.871 3.16 2.679 3.549 7.412.871 10.571l-59.336 69.983c-1.483 1.749-3.597 2.65-5.725 2.65z" fill="#fee45a"/></g><g><path d="m445.247 291.395c-1.772 0-3.551-.625-4.98-1.895-3.096-2.752-3.375-7.492-.623-10.588l8.621-9.699c2.75-3.096 7.492-3.374 10.588-.623 3.096 2.752 3.375 7.492.623 10.588l-8.621 9.699c-1.481 1.668-3.54 2.518-5.608 2.518z" fill="#fee45a"/></g></g></svg>