<svg id="Layer_1" height="512" viewBox="0 0 128 128" width="512" xmlns="http://www.w3.org/2000/svg" data-name="Layer 1"><path d="m86.418 85.667c11.415-9.334 19.749-15.834 26.415-25.167s7.412-21.385 8.387-29.475-.57-14.832-4.992-19.253-11.162-5.966-19.253-4.992-13.308 7.803-27.353 10.12c-13.872 1.85-20.022 21.439-29.64 23.082-9.615-1.24-17.428 22.965-23.081 29.64-5.653 9.822-9.146 19.263-10.121 27.353s.57 14.832 4.992 19.253 11.162 5.966 19.253 4.992 17.531-4.468 27.353-10.121c9.822-6.299 18.422-17.268 28.04-25.432z" fill="#7d6599"/><path d="m27.7 100.3c4.61 4.609 12.845 8.708 22.433 1.171 9.589-6.35 20.531-11.2 30.554-20.776 10.023-8.783 17.228-21.921 20.776-30.554 3.548-7.081 3.438-17.823-1.171-22.433s-12.845-3.563-22.433-1.171c-9.589 1.5-20.531 12.047-30.554 20.776-10.019 14.307-17.224 19.65-20.772 30.55-3.548 9.214-3.433 17.823 1.167 22.437z" fill="#67537e"/><path d="m67.267 71.473a12.294 12.294 0 0 1 3.8-3.67c4.632-2.841 10-6.781 11.509-10.675 1.759-3.148 2.363-8.378-.58-11.122-2.285-1.651-6.368-5.082-11.122-.58a28.885 28.885 0 0 1 -7.713 5.832 31.36 31.36 0 0 0 -10.892 10.05c-3.183 4.831-5.475 6.442-6.841 9.564-1.759 4.752-1.413 9.115.58 11.122s6.368 3.749 11.122.58c4.219-2.274 6.255-5.267 10.137-11.101z" fill="#e8e8e8"/><g fill="#7d6599"><circle cx="41.29" cy="17.474" r="4.03"/><circle cx="96.26" cy="111.867" r="4.03"/><circle cx="109.959" cy="85.7" r="6"/><circle cx="12.5" cy="15.503" r="6"/></g></svg>