<svg id="Layer_1" height="512" viewBox="0 0 128 128" width="512" xmlns="http://www.w3.org/2000/svg" data-name="Layer 1"><path d="m101.596 6.5 4.699 14.461h15.205l-12.301 8.937 4.698 14.461-12.301-8.937-12.301 8.937 4.699-14.461-12.302-8.937h15.205z" fill="#f3d55b"/><g fill="#f3ba33"><path d="m17.619 123.25a1.75 1.75 0 0 1 -1.607-2.44c1.67-3.891 3.461-7.664 5.322-11.218a1.75 1.75 0 0 1 3.1 1.624c-1.82 3.474-3.571 7.166-5.205 10.974a1.751 1.751 0 0 1 -1.61 1.06z"/><path d="m28.674 102.111a1.75 1.75 0 0 1 -1.474-2.688 116.552 116.552 0 0 1 47.3-42.656 167.607 167.607 0 0 1 23.269-9.5c1.521-.5 3.043-.988 4.6-1.462a1.75 1.75 0 1 1 1.022 3.348c-1.527.466-3.024.942-4.521 1.437a164.082 164.082 0 0 0 -22.791 9.3 113.149 113.149 0 0 0 -45.926 41.41 1.749 1.749 0 0 1 -1.479.811z"/><path d="m64.229 54.835a1.751 1.751 0 0 1 -.892-3.258 135.494 135.494 0 0 1 15.474-7.8 1.75 1.75 0 0 1 1.378 3.223 132 132 0 0 0 -15.073 7.593 1.75 1.75 0 0 1 -.887.242z"/><path d="m29.3 87.5a1.749 1.749 0 0 1 -1.449-2.728 108.05 108.05 0 0 1 26.236-27.142 1.75 1.75 0 0 1 2.055 2.834 104.538 104.538 0 0 0 -25.39 26.267 1.749 1.749 0 0 1 -1.452.769z"/><path d="m35.362 65.75a1.749 1.749 0 0 1 -1.3-2.918c12.3-13.716 28.585-24.28 48.4-31.4a1.75 1.75 0 0 1 1.184 3.294c-19.264 6.922-35.069 17.164-46.98 30.442a1.744 1.744 0 0 1 -1.304.582z"/><path d="m18.841 90.786a1.75 1.75 0 0 1 -1.582-2.5 107.669 107.669 0 0 1 8.835-15.366 1.75 1.75 0 1 1 2.877 1.992 104.314 104.314 0 0 0 -8.546 14.866 1.751 1.751 0 0 1 -1.584 1.008z"/><path d="m31.791 55.787a1.749 1.749 0 0 1 -1.3-2.916c13.849-15.486 30.429-24.154 41.9-28.7a1.75 1.75 0 0 1 1.289 3.254c-11.124 4.408-27.191 12.803-40.58 27.775a1.749 1.749 0 0 1 -1.309.587z"/><path d="m6.5 112.63a1.674 1.674 0 0 1 -.243-.017 1.75 1.75 0 0 1 -1.492-1.975c2.514-18.038 8.494-34.062 17.772-47.626a1.75 1.75 0 0 1 2.889 1.976c-8.971 13.112-14.755 28.635-17.193 46.134a1.75 1.75 0 0 1 -1.733 1.508z"/></g></svg>